<svg width="93" height="93" viewBox="0 0 93 93" fill="none" xmlns="http://www.w3.org/2000/svg">
<rect width="93" height="93" fill="#FCF9E8"/>
<path d="M69.8 37.5V25C61.8 25 54 27.7 48.4 32.4L46.9 33.6L45.4 32.4C39.7 27.7 32 25 24 25V37.5C24 40.9 25.2 44.1 27.2 46.8C25.2 49.5 24 52.7 24 56.1V68.6C32 68.6 39.8 65.9 45.4 61.2L46.9 60C43 57.7 40.6 53.6 40.6 49V44.6C40.6 40.1 43 35.9 46.9 33.6C50.8 35.9 53.2 40.1 53.2 44.6V49C53.2 53.5 50.8 57.7 46.9 60L48.4 61.2C54.1 65.9 61.8 68.6 69.8 68.6V56.1C69.8 52.7 68.6 49.5 66.6 46.8C68.6 44.1 69.8 40.9 69.8 37.5Z" fill="#201B21"/>
</svg>
