<svg width="93" height="93" viewBox="0 0 93 93" fill="none" xmlns="http://www.w3.org/2000/svg">
<rect width="93" height="93" fill="#FCF9E8"/>
<path d="M80.6 30L81.6 29.3L80.6 28.6C77.3 26.3 73.4 25 69.4 25H62C59.7 25 57.5 25.4 55.3 26.2L46.9 29.3L55.3 32.4C57.4 33.2 59.7 33.6 62 33.6H69.4C73.4 33.6 77.3 32.3 80.6 30Z" fill="#201B21"/>
<path d="M80.6 39.4L81.6 38.7L80.6 38C77.3 35.7 73.4 34.4 69.4 34.4H62C59.7 34.4 57.5 34.8 55.3 35.6L46.9 38.7L55.3 41.8C57.4 42.6 59.7 43 62 43H69.4C73.4 43 77.3 41.8 80.6 39.4Z" fill="#201B21"/>
<path d="M12 38L11 38.7L12 39.4C15.3 41.7 19.2 43 23.2 43H30.6C32.9 43 35.1 42.6 37.3 41.8L45.7 38.7L37.3 35.6C35.2 34.8 32.9 34.4 30.6 34.4H23.2C19.1 34.4 15.2 35.7 12 38Z" fill="#201B21"/>
<path d="M80.6 48.9L81.6 48.2L80.6 47.5C77.3 45.2 73.4 43.9 69.4 43.9H62C59.7 43.9 57.5 44.3 55.3 45.1L46.9 48.2L55.3 51.3C57.4 52.1 59.7 52.5 62 52.5H69.4C73.4 52.5 77.3 51.2 80.6 48.9Z" fill="#201B21"/>
<path d="M12 47.5L11 48.2L12 48.9C15.3 51.2 19.2 52.5 23.2 52.5H30.6C32.9 52.5 35.1 52.1 37.3 51.3L45.7 48.2L37.3 45.1C35.2 44.3 32.9 43.9 30.6 43.9H23.2C19.1 43.9 15.2 45.1 12 47.5Z" fill="#201B21"/>
<path d="M12 28.6L11 29.3L12 30C15.3 32.3 19.2 33.6 23.2 33.6H30.6C32.9 33.6 35.1 33.2 37.3 32.4L45.7 29.3L37.3 26.2C35.2 25.4 32.9 25 30.6 25H23.2C19.1 25 15.2 26.3 12 28.6Z" fill="#201B21"/>
<path d="M47.2 29.3H45.3V67.1H47.2V29.3Z" fill="#201B21"/>
</svg>
