<svg width="93" height="93" viewBox="0 0 93 93" fill="none" xmlns="http://www.w3.org/2000/svg">
<rect width="93" height="93" fill="#FCF9E8"/>
<path d="M59 35.3L51.7 26.4L49.7 23.1L51.3 19L41.6 27.2L48.9 36L50.9 39.3L49.3 43.4L59 35.3Z" fill="#201B21"/>
<path d="M44.9 31.3L33.5 31.5L29.7 31L27.6 27.2L27.9 39.9L39.3 39.7L43.1 40.2L45.2 44L44.9 31.3Z" fill="#201B21"/>
<path d="M33 39.9L26.1 49L23.4 51.8L19 51.1L29.1 58.7L36 49.6L38.7 46.9L43.1 47.6L33 39.9Z" fill="#201B21"/>
<path d="M32.3 54.6L35 65.7L35.5 69.5L32.2 72.5L44.4 69.3L41.6 58.2L41.1 54.4L44.4 51.5L32.3 54.6Z" fill="#201B21"/>
<path d="M43.3 64.3L53.6 69.1L56.9 71.2L57.2 75.6L62.3 64L51.9 59.2L48.6 57.2L48.3 52.8L43.3 64.3Z" fill="#201B21"/>
<path d="M57.7 61.7L67.9 56.6L71.5 55.3L75.1 57.8L69.3 46.6L59.1 51.7L55.4 53L51.8 50.5L57.7 61.7Z" fill="#201B21"/>
<path d="M64.7 48.8L67 37.6L68.3 33.9L72.5 32.7L60.1 30.2L57.8 41.4L56.5 45.1L52.3 46.3L64.7 48.8Z" fill="#201B21"/>
</svg>
