<svg width="93" height="93" viewBox="0 0 93 93" fill="none" xmlns="http://www.w3.org/2000/svg">
<rect width="93" height="93" fill="#FCF9E8"/>
<path d="M50.8 58.1C47.3 56.8 43.7 56.6 40.4 57.5C38.1 58.1 35.9 59.3 33.9 60.8L32.5 62L32.1 62.4L33 63.2C33.1 63.2 33.1 63.3 33.2 63.4C33.4 63.6 33.6 63.7 33.9 63.9L34.5 64.3L35.1 63.8C35.2 63.7 35.4 63.5 35.6 63.4C37.4 61.9 39.4 60.9 41.5 60.4C44.2 59.7 47.1 59.8 50 60.9C52.4 61.8 57.3 62.9 63.2 60.4L63.4 60.3L63.7 60C63.7 59.9 63.8 59.9 63.9 59.8C64.4 59.2 64.9 58.6 65.3 57.9L67.3 54.8L64.1 56.6C59.4 59.2 55.1 59.7 50.8 58.1Z" fill="#201B21"/>
<path d="M37.1 47.3C39.8 46.6 42.7 46.7 45.6 47.8C48.8 49 57 50.7 66.2 42.4L67.7 40.9L67.8 40.8L68.2 40.4L68 39.9C67.9 39.5 67.7 39 67.5 38.5L67 37.1L66 38.1C65.9 38.3 65.7 38.4 65.5 38.6C61.1 43.1 54.3 47.7 46.5 44.9C43 43.6 39.4 43.4 36.1 44.3C32.9 45.2 30.1 46.9 27.5 49.3V49.2L26 50.8C26 50.9 25.9 50.9 25.8 51L25.5 51.3L25.6 51.7C25.7 52.2 25.9 52.7 26 53.2L26.6 54.8L27.6 53.5C27.7 53.3 27.9 53.2 28 53C30.1 51.1 33 48.4 37.1 47.3Z" fill="#201B21"/>
<path d="M27.4 45.5C29.7 43.1 32.3 41.6 35.1 40.8C37.8 40.1 40.7 40.2 43.6 41.3C52.6 44.6 60.4 39.2 63.8 36.3L65.1 35L65.6 34.6L65.2 34C64.9 33.7 64.7 33.3 64.4 32.9L63.8 32.1L63.1 32.8C63 32.9 62.8 33.1 62.7 33.2C58.5 37.2 52 41.3 44.6 38.5C41.1 37.2 37.5 37 34.2 37.9C32.1 38.5 30.1 39.5 28.1 40.8L26 42.5C25.8 42.7 25.7 42.8 25.5 43L25.3 43.2V43.5C25.2 44.2 25.2 44.9 25.1 45.5L25 48L26.7 46.2C26.9 46 27.1 45.7 27.4 45.5Z" fill="#201B21"/>
<path d="M53.7 64.9L53.5 65.5L53.7 64.9C53.4 64.8 53.2 64.7 52.9 64.6C49.4 63.3 45.8 63.1 42.5 64C41.8 64.2 41.1 64.4 40.4 64.7L38 65.8L37.4 66.1L39.4 66.8C40 67 40.6 67.2 41.2 67.4L41.5 67.5L41.8 67.4C42.1 67.3 42.4 67.1 42.7 67.1C42.9 67.1 43.1 67 43.3 66.9C45.7 66.3 48.3 66.3 51.1 67.2C51.4 67.3 51.6 67.4 51.9 67.5L52.4 67.7L52.7 67.6C53.4 67.4 54.2 67.2 54.8 66.9L57.6 65.9L54.7 65.2C54.4 65.1 54 65 53.7 64.9Z" fill="#201B21"/>
<path d="M69 44.2L67.5 45.7C67.3 45.9 67.1 46.1 66.9 46.3C62.8 50.2 56.2 54.4 48.8 51.6C45.3 50.3 41.7 50.1 38.4 51C35.3 51.9 32.5 53.5 30 55.9L28.7 57.3L28.3 57.8L28.7 58.4C29 58.8 29.2 59.1 29.4 59.5L30 60.4L30.7 59.5C30.8 59.4 31 59.2 31.1 59.1C33.5 56.5 36.1 54.9 39.1 54.1C41.8 53.4 44.7 53.5 47.6 54.6C50.1 55.5 52.7 55.8 55.3 55.5C59.9 55 64.5 52.4 67.9 49.5C68.1 49.3 68.3 49.2 68.5 49L68.8 48.7V48.4C68.8 47.8 68.9 47.1 68.9 46.5L69 44.2Z" fill="#201B21"/>
<path d="M31 35L30.7 34.4L31 35C31.6 34.7 32.3 34.5 32.9 34.3C35.6 33.6 38.5 33.7 41.4 34.8C43.3 35.5 45.2 35.8 47.3 35.8C51.5 35.8 55.7 34.3 59.6 31.4L61.1 30.2L61.6 29.8L60.7 29.1C60.4 28.8 60 28.5 59.6 28.3L59 27.9L58.5 28.3C58.3 28.4 58.2 28.6 58 28.7C52.7 32.7 47.4 33.8 42.4 31.9C38.8 30.6 35.2 30.3 31.6 31.4C31.3 31.5 31 31.6 30.6 31.7L30.4 31.8L30.1 32.1C30.1 32.2 30 32.2 29.9 32.3C29.5 32.9 29 33.4 28.6 34L26.7 36.9L29.8 35.3C30.3 35.3 30.7 35.1 31 35Z" fill="#201B21"/>
<path d="M39.2 28.2L39.5 28.3C40.8 28.8 42.8 29.3 45.3 29.3C47.9 29.3 50.4 28.7 52.9 27.7L56 26.2L53.9 25.5C53.3 25.3 52.7 25.1 52 25H51.7L51.4 25.1C51.1 25.2 50.8 25.4 50.5 25.5C47.5 26.6 44.5 26.8 41.6 26C41.3 25.9 41 25.8 40.7 25.7L40.4 25.6L40.1 25.7C39.5 25.9 38.9 26.1 38.3 26.4L36 27.4L38.4 28.1C38.6 28 38.9 28.1 39.2 28.2Z" fill="#201B21"/>
</svg>
