<svg width="768" height="768" viewBox="0 0 768 768" fill="none" xmlns="http://www.w3.org/2000/svg">
<g clip-path="url(#clip0_208_38)">
<path d="M418 657.25H265.25V517.152C314.525 491.912 368.537 464.148 418 439.643V657.25ZM262.312 349.254C285.748 349.257 305.857 349.263 320.106 349.268C323.754 349.269 327.017 349.27 329.854 349.271C328.79 351.417 327.596 353.827 326.285 356.467C320.526 368.067 312.547 384.125 303.666 401.952C286.791 435.827 266.671 476.062 252.341 504.262H110V349.271C161.207 349.247 217.769 349.247 262.312 349.254ZM656.308 198.955C656.249 309.455 656.737 393.003 656.343 504.25H506.055C506.115 463.303 506.081 427.018 506.045 390.742C506.008 353.558 505.971 316.384 506.036 274.194L656.308 198.955ZM568.326 110.75L493.343 261.245L263 261.024V110.75H568.326Z" stroke="white" stroke-width="16"/>
</g>
<defs>
<clipPath id="clip0_208_38">
<rect width="768" height="768" fill="white"/>
</clipPath>
</defs>
</svg>
