<svg width="1024" height="1024" viewBox="0 0 1024 1024" fill="none" xmlns="http://www.w3.org/2000/svg">
<g clip-path="url(#clip0_208_2)">
<path d="M560 879H351V687.906C418.36 653.404 492.504 615.279 560 581.894V879ZM349.749 463.005C380.998 463.01 407.81 463.017 426.81 463.023C433.635 463.026 439.453 463.028 444.105 463.029C442.26 466.749 440.016 471.277 437.436 476.475C429.757 491.943 419.116 513.354 407.274 537.126C384.483 582.878 357.25 637.343 338.094 675.016H144V463.03C212.974 462.996 289.585 462.996 349.749 463.005ZM877.746 260.955C877.652 411.298 878.33 523.891 877.781 675H672.069C672.155 619.311 672.108 570.147 672.06 520.992C672.01 470.931 671.96 420.881 672.05 363.944L877.746 260.955ZM762.076 145L659.441 350.995L348 350.696V145H762.076Z" stroke="white" stroke-width="16"/>
</g>
<defs>
<clipPath id="clip0_208_2">
<rect width="1024" height="1024" fill="white"/>
</clipPath>
</defs>
</svg>
