<svg width="64" height="64" viewBox="0 0 64 64" fill="none" xmlns="http://www.w3.org/2000/svg">
<g clip-path="url(#clip0_208_92)">
<mask id="path-1-inside-1_208_92" fill="white">
<path d="M28.5625 28.4396C28.5625 28.4396 23.8434 37.9665 21.4375 42.6885C25.9576 40.3738 30.9985 37.779 35.5 35.5641V55.4375H21.4375V42.6885L8.5 42.6885V28.4396C17.375 28.4348 28.5625 28.4396 28.5625 28.4396Z"/>
<path d="M41.5036 22.4375L55.3596 15.5C55.3505 25.4686 55.3984 32.719 55.3596 42.6875H41.5036C41.5166 35.3125 41.491 29.8125 41.5036 22.4375Z"/>
<path d="M48.4375 8.5625L41.5245 22.4375L21.25 22.4181V8.5625H48.4375Z"/>
</mask>
<path d="M28.5625 28.4396L42.8999 35.5416L54.338 12.4506L28.5693 12.4396L28.5625 28.4396ZM35.5 35.5641H51.5V9.8593L28.4361 21.2078L35.5 35.5641ZM35.5 55.4375V71.4375H51.5V55.4375H35.5ZM21.4375 55.4375H5.4375V71.4375H21.4375V55.4375ZM8.5 42.6885H-7.5V58.6885L8.49999 58.6885L8.5 42.6885ZM8.5 28.4396L8.49141 12.4396L-7.5 12.4482V28.4396H8.5ZM41.5036 22.4375L34.3404 8.13058L25.5206 12.5465L25.5036 22.41L41.5036 22.4375ZM55.3596 15.5L71.3596 15.5147L71.3834 -10.4163L48.1964 1.19308L55.3596 15.5ZM55.3596 42.6875V58.6875H71.2976L71.3595 42.7497L55.3596 42.6875ZM41.5036 42.6875L25.5036 42.6594L25.4755 58.6875H41.5036V42.6875ZM48.4375 8.5625L62.7584 15.6977L74.2852 -7.4375H48.4375V8.5625ZM41.5245 22.4375L41.5092 38.4375L51.4239 38.447L55.8454 29.5727L41.5245 22.4375ZM21.25 22.4181H5.25V38.4028L21.2347 38.4181L21.25 22.4181ZM21.25 8.5625V-7.4375H5.25V8.5625H21.25ZM21.4375 42.6885L28.7304 56.9298C33.3105 54.5843 38.2073 52.0639 42.5639 49.9203L35.5 35.5641L28.4361 21.2078C23.7896 23.4941 18.6046 26.1633 14.1446 28.4472L21.4375 42.6885ZM35.5 35.5641H19.5V55.4375H35.5H51.5V35.5641H35.5ZM21.4375 55.4375H37.4375V42.6885H21.4375H5.4375V55.4375H21.4375ZM21.4375 42.6885L21.4375 26.6885L8.50001 26.6885L8.5 42.6885L8.49999 58.6885L21.4375 58.6885L21.4375 42.6885ZM8.5 42.6885H24.5V28.4396H8.5H-7.5V42.6885H8.5ZM28.5625 28.4396C14.2251 21.3376 14.2251 21.3376 14.2251 21.3377C14.225 21.3377 14.225 21.3378 14.2249 21.3379C14.2248 21.3382 14.2246 21.3385 14.2244 21.3391C14.2238 21.3401 14.223 21.3417 14.222 21.3439C14.2198 21.3483 14.2165 21.355 14.2121 21.3638C14.2033 21.3815 14.1901 21.4081 14.1728 21.4431C14.1381 21.5131 14.0867 21.6168 14.0204 21.7506C13.8876 22.0183 13.695 22.4066 13.4563 22.8876C12.9787 23.8497 12.317 25.1812 11.5809 26.659C10.0994 29.6328 8.34756 33.1359 7.1813 35.4248L21.4375 42.6885L35.6937 49.9522C36.9334 47.5191 38.744 43.8977 40.2236 40.9276C40.968 39.4334 41.6364 38.0881 42.1188 37.1164C42.3601 36.6304 42.555 36.2375 42.6897 35.9658C42.7571 35.8299 42.8094 35.7243 42.845 35.6524C42.8628 35.6165 42.8765 35.589 42.8857 35.5704C42.8903 35.5611 42.8938 35.554 42.8962 35.5492C42.8974 35.5468 42.8983 35.5449 42.8989 35.5437C42.8992 35.543 42.8995 35.5425 42.8996 35.5422C42.8997 35.542 42.8998 35.5419 42.8998 35.5418C42.8999 35.5417 42.8999 35.5416 28.5625 28.4396ZM8.5 28.4396L8.50859 44.4396C12.9407 44.4372 17.952 44.4372 21.8569 44.4378C23.809 44.4381 25.4839 44.4386 26.6708 44.439C27.2642 44.4391 27.7355 44.4393 28.0585 44.4394C28.2199 44.4395 28.3443 44.4395 28.4283 44.4396C28.4702 44.4396 28.5021 44.4396 28.5235 44.4396C28.5342 44.4396 28.5422 44.4396 28.5476 44.4396C28.5503 44.4396 28.5523 44.4396 28.5537 44.4396C28.5543 44.4396 28.5548 44.4396 28.5552 44.4396C28.5553 44.4396 28.5555 44.4396 28.5556 44.4396C28.5556 44.4396 28.5557 44.4396 28.5625 28.4396C28.5693 12.4396 28.5693 12.4396 28.5692 12.4396C28.5691 12.4396 28.569 12.4396 28.5688 12.4396C28.5684 12.4396 28.5679 12.4396 28.5672 12.4396C28.5659 12.4396 28.5638 12.4396 28.5611 12.4396C28.5556 12.4396 28.5475 12.4396 28.5368 12.4396C28.5153 12.4396 28.4832 12.4396 28.4411 12.4396C28.3569 12.4395 28.2322 12.4395 28.0705 12.4394C27.7469 12.4393 27.2749 12.4391 26.6808 12.439C25.4926 12.4386 23.816 12.4381 21.8618 12.4378C17.9542 12.4372 12.9343 12.4372 8.49141 12.4396L8.5 28.4396ZM35.5 55.4375V39.4375H21.4375V55.4375V71.4375H35.5V55.4375ZM41.5036 22.4375L48.6669 36.7444L62.5229 29.8069L55.3596 15.5L48.1964 1.19308L34.3404 8.13058L41.5036 22.4375ZM55.3596 42.6875V26.6875H41.5036V42.6875V58.6875H55.3596V42.6875ZM55.3596 15.5L39.3596 15.4853C39.3504 25.6222 39.3985 32.6503 39.3598 42.6253L55.3596 42.6875L71.3595 42.7497C71.3982 32.7877 71.3507 25.315 71.3596 15.5147L55.3596 15.5ZM41.5036 42.6875L57.5036 42.7156C57.5101 39.0033 57.5069 35.7641 57.5037 32.5466C57.5005 29.3263 57.4973 26.1279 57.5036 22.4649L41.5036 22.4375L25.5036 22.41C25.4973 26.1221 25.5005 29.3612 25.5037 32.5784C25.5069 35.7984 25.5101 38.9967 25.5036 42.6594L41.5036 42.6875ZM21.25 22.4181H37.25V8.5625H21.25H5.25V22.4181H21.25ZM21.25 8.5625V24.5625H48.4375V8.5625V-7.4375H21.25V8.5625ZM41.5245 22.4375L41.5398 6.43751L21.2653 6.41811L21.25 22.4181L21.2347 38.4181L41.5092 38.4375L41.5245 22.4375ZM48.4375 8.5625L34.1166 1.4273L27.2035 15.3023L41.5245 22.4375L55.8454 29.5727L62.7584 15.6977L48.4375 8.5625Z" fill="white" mask="url(#path-1-inside-1_208_92)"/>
</g>
<defs>
<clipPath id="clip0_208_92">
<rect width="64" height="64" fill="white"/>
</clipPath>
</defs>
</svg>
