<svg width="256" height="256" viewBox="0 0 256 256" fill="none" xmlns="http://www.w3.org/2000/svg">
<g clip-path="url(#clip0_208_56)">
<path d="M134 213.75H93.75V175.644C106.827 168.943 120.74 161.81 134 155.167V213.75ZM87.4365 121.751C92.6512 121.752 97.3716 121.753 101.347 121.754C99.8838 124.697 98.2214 128.047 96.4482 131.606C91.3834 141.774 85.4492 153.645 80.8389 162.754H42V121.756C57.5822 121.75 74.1206 121.749 87.4365 121.751ZM213.435 74.9531C213.44 105.956 213.553 131.155 213.462 162.75H174.024C174.035 151.233 174.025 140.734 174.015 130.242C174.003 118.822 173.994 107.411 174.009 94.6934L213.435 74.9531ZM180.826 42.25L161.147 81.7451L93 81.6797V42.25H180.826Z" stroke="white" stroke-width="16"/>
</g>
<defs>
<clipPath id="clip0_208_56">
<rect width="256" height="256" fill="white"/>
</clipPath>
</defs>
</svg>
