<svg width="128" height="128" viewBox="0 0 128 128" fill="none" xmlns="http://www.w3.org/2000/svg">
<g clip-path="url(#clip0_208_74)">
<path d="M63 102.875H50.875V90.2666C54.8556 88.2271 58.9501 86.1323 63 84.0791V102.875ZM44.2148 64.876C42.1789 68.9611 39.9146 73.4944 37.958 77.377H25V64.8779C31.5524 64.8763 38.1903 64.8751 43.7178 64.876C43.8845 64.876 44.0502 64.8759 44.2148 64.876ZM102.722 43.9502C102.734 55.3802 102.764 65.5727 102.742 77.375H91.0127C91.0134 73.1355 91.0118 69.1242 91.0078 65.1172C91.0029 60.1552 90.9992 55.1996 91.0029 49.8174L102.722 43.9502ZM83.9512 25.125L78.0986 36.8701L50.5 36.8428V25.125H83.9512Z" stroke="white" stroke-width="16"/>
</g>
<defs>
<clipPath id="clip0_208_74">
<rect width="128" height="128" fill="white"/>
</clipPath>
</defs>
</svg>
