<svg width="512" height="512" viewBox="0 0 512 512" fill="none" xmlns="http://www.w3.org/2000/svg">
<g clip-path="url(#clip0_208_20)">
<path d="M276 435.5H179.5V346.398C210.686 330.422 244.595 313.003 276 297.396V435.5ZM174.874 235.503C190.498 235.505 203.904 235.509 213.403 235.512C214.162 235.512 214.896 235.511 215.604 235.512C215.45 235.822 215.294 236.138 215.135 236.459C211.296 244.192 205.977 254.896 200.057 266.779C189.094 288.785 176.082 314.808 166.59 333.508H76V235.514C109.424 235.499 145.95 235.499 174.874 235.503ZM434.869 136.956C434.845 207.645 435.145 262.104 434.904 333.5H340.039C340.074 307.285 340.054 283.884 340.03 260.492C340.006 236.187 339.984 211.89 340.023 184.443L434.869 136.956ZM374.576 76.5L327.245 171.495L178 171.352V76.5H374.576Z" stroke="white" stroke-width="16"/>
</g>
<defs>
<clipPath id="clip0_208_20">
<rect width="512" height="512" fill="white"/>
</clipPath>
</defs>
</svg>
